{
  "accessors": [
    {
      "bufferView": 2,
      "componentType": 5126,
      "count": 25822,
      "max": [
        35.85795593261719,
        47.784828186035156,
        21.209381103515625
      ],
      "min": [
        -94.82246398925781,
        -1.4923162460327148,
        -107.5338134765625
      ],
      "type": "VEC3"
    },
    {
      "bufferView": 2,
      "byteOffset": 309864,
      "componentType": 5126,
      "count": 25822,
      "max": [
        1.0,
        1.0,
        1.0
      ],
      "min": [
        -1.0,
        -1.0,
        -1.0
      ],
      "type": "VEC3"
    },
    {
      "bufferView": 3,
      "componentType": 5126,
      "count": 25822,
      "max": [
        1.0,
        1.0,
        1.0,
        1.0
      ],
      "min": [
        -1.0,
        -1.0,
        -1.0,
        -1.0
      ],
      "type": "VEC4"
    },
    {
      "bufferView": 1,
      "componentType": 5126,
      "count": 25822,
      "max": [
        0.9891699552536011,
        0.9998272657394409
      ],
      "min": [
        0.004579027183353901,
        0.00017271656543016434
      ],
      "type": "VEC2"
    },
    {
      "bufferView": 1,
      "byteOffset": 206576,
      "componentType": 5126,
      "count": 25822,
      "max": [
        1.0,
        1.0
      ],
      "min": [
        0.0,
        0.0
      ],
      "type": "VEC2"
    },
    {
      "bufferView": 1,
      "byteOffset": 413152,
      "componentType": 5126,
      "count": 25822,
      "max": [
        0.9891699552536011,
        0.9998272657394409
      ],
      "min": [
        0.004579027183353901,
        0.00017271656543016434
      ],
      "type": "VEC2"
    },
    {
      "bufferView": 1,
      "byteOffset": 619728,
      "componentType": 5126,
      "count": 25822,
      "max": [
        0.9891699552536011,
        0.9998272657394409
      ],
      "min": [
        0.004579027183353901,
        0.00017271656543016434
      ],
      "type": "VEC2"
    },
    {
      "bufferView": 1,
      "byteOffset": 826304,
      "componentType": 5126,
      "count": 25822,
      "max": [
        0.9891699552536011,
        0.9998272657394409
      ],
      "min": [
        0.004579027183353901,
        0.00017271656543016434
      ],
      "type": "VEC2"
    },
    {
      "bufferView": 0,
      "componentType": 5125,
      "count": 86226,
      "type": "SCALAR"
    },
    {
      "bufferView": 2,
      "byteOffset": 619728,
      "componentType": 5126,
      "count": 1084,
      "max": [
        70.127685546875,
        58.17224884033203,
        78.01458740234375
      ],
      "min": [
        -62.16157913208008,
        -8.895984649658203,
        -54.27467346191406
      ],
      "type": "VEC3"
    },
    {
      "bufferView": 2,
      "byteOffset": 632736,
      "componentType": 5126,
      "count": 1084,
      "max": [
        1.0,
        1.0,
        1.0
      ],
      "min": [
        -1.0,
        -1.0,
        -1.0
      ],
      "type": "VEC3"
    },
    {
      "bufferView": 3,
      "byteOffset": 413152,
      "componentType": 5126,
      "count": 1084,
      "max": [
        1.0,
        1.0,
        1.0,
        1.0
      ],
      "min": [
        -1.0,
        -1.0,
        -1.0,
        1.0
      ],
      "type": "VEC4"
    },
    {
      "bufferView": 1,
      "byteOffset": 1032880,
      "componentType": 5126,
      "count": 1084,
      "max": [
        0.998995304107666,
        0.9764266014099121
      ],
      "min": [
        0.0010046064853668213,
        0.0010045990347862244
      ],
      "type": "VEC2"
    },
    {
      "bufferView": 1,
      "byteOffset": 1041552,
      "componentType": 5126,
      "count": 1084,
      "max": [
        1.0,
        1.0
      ],
      "min": [
        0.0,
        0.0
      ],
      "type": "VEC2"
    },
    {
      "bufferView": 1,
      "byteOffset": 1050224,
      "componentType": 5126,
      "count": 1084,
      "max": [
        0.998995304107666,
        0.9764266014099121
      ],
      "min": [
        0.0010046064853668213,
        0.0010045990347862244
      ],
      "type": "VEC2"
    },
    {
      "bufferView": 1,
      "byteOffset": 1058896,
      "componentType": 5126,
      "count": 1084,
      "max": [
        0.998995304107666,
        0.9764266014099121
      ],
      "min": [
        0.0010046064853668213,
        0.0010045990347862244
      ],
      "type": "VEC2"
    },
    {
      "bufferView": 1,
      "byteOffset": 1067568,
      "componentType": 5126,
      "count": 1084,
      "max": [
        0.998995304107666,
        0.9764266014099121
      ],
      "min": [
        0.0010046064853668213,
        0.0010045990347862244
      ],
      "type": "VEC2"
    },
    {
      "bufferView": 0,
      "byteOffset": 344904,
      "componentType": 5125,
      "count": 2262,
      "type": "SCALAR"
    }
  ],
  "asset": {
    "extras": {
      "author": "MoJo_GameDesign (https://sketchfab.com/Joppe_monnens)",
      "license": "CC-BY-4.0 (http://creativecommons.org/licenses/by/4.0/)",
      "source": "https://sketchfab.com/3d-models/retro-bite-diner-crimescene-cubicle-71860b9e18134465846da63d70a8e72d",
      "title": "Retro Bite || Diner Crimescene Cubicle ||"
    },
    "generator": "Sketchfab-15.12.0",
    "version": "2.0"
  },
  "bufferViews": [
    {
      "buffer": 0,
      "byteLength": 353952,
      "name": "floatBufferViews",
      "target": 34963
    },
    {
      "buffer": 0,
      "byteLength": 1076240,
      "byteOffset": 353952,
      "byteStride": 8,
      "name": "floatBufferViews",
      "target": 34962
    },
    {
      "buffer": 0,
      "byteLength": 645744,
      "byteOffset": 1430192,
      "byteStride": 12,
      "name": "floatBufferViews",
      "target": 34962
    },
    {
      "buffer": 0,
      "byteLength": 430496,
      "byteOffset": 2075936,
      "byteStride": 16,
      "name": "floatBufferViews",
      "target": 34962
    }
  ],
  "buffers": [
    {
      "byteLength": 2506432,
      "uri": "scene.bin"
    }
  ],
  "images": [
    {
      "uri": "textures/Props_baseColor.png"
    },
    {
      "uri": "textures/Props_metallicRoughness.png"
    },
    {
      "uri": "textures/Props_emissive.png"
    },
    {
      "uri": "textures/Props_normal.png"
    },
    {
      "uri": "textures/Chamber_baseColor.png"
    },
    {
      "uri": "textures/Chamber_metallicRoughness.png"
    },
    {
      "uri": "textures/Chamber_emissive.png"
    },
    {
      "uri": "textures/Chamber_normal.png"
    }
  ],
  "materials": [
    {
      "doubleSided": true,
      "emissiveFactor": [
        1.0,
        1.0,
        1.0
      ],
      "emissiveTexture": {
        "index": 2
      },
      "name": "Props",
      "normalTexture": {
        "index": 3
      },
      "occlusionTexture": {
        "index": 1
      },
      "pbrMetallicRoughness": {
        "baseColorTexture": {
          "index": 0
        },
        "metallicRoughnessTexture": {
          "index": 1
        }
      }
    },
    {
      "doubleSided": true,
      "emissiveFactor": [
        1.0,
        1.0,
        1.0
      ],
      "emissiveTexture": {
        "index": 6
      },
      "name": "Chamber",
      "normalTexture": {
        "index": 7
      },
      "occlusionTexture": {
        "index": 5
      },
      "pbrMetallicRoughness": {
        "baseColorTexture": {
          "index": 4
        },
        "metallicRoughnessTexture": {
          "index": 5
        }
      }
    }
  ],
  "meshes": [
    {
      "name": "Voorwerpen_Props_0",
      "primitives": [
        {
          "attributes": {
            "NORMAL": 1,
            "POSITION": 0,
            "TANGENT": 2,
            "TEXCOORD_0": 3,
            "TEXCOORD_1": 4,
            "TEXCOORD_2": 5,
            "TEXCOORD_3": 6,
            "TEXCOORD_4": 7
          },
          "indices": 8,
          "material": 0,
          "mode": 4
        }
      ]
    },
    {
      "name": "Muurdecoratie_Chamber_0",
      "primitives": [
        {
          "attributes": {
            "NORMAL": 10,
            "POSITION": 9,
            "TANGENT": 11,
            "TEXCOORD_0": 12,
            "TEXCOORD_1": 13,
            "TEXCOORD_2": 14,
            "TEXCOORD_3": 15,
            "TEXCOORD_4": 16
          },
          "indices": 17,
          "material": 1,
          "mode": 4
        }
      ]
    }
  ],
  "nodes": [
    {
      "children": [
        1
      ],
      "matrix": [
        0.8530877828598022,
        0.0,
        0.0,
        0.0,
        0.0,
        1.8942353971147568e-16,
        -0.8530877828598022,
        0.0,
        0.0,
        0.8530877828598022,
        1.8942353971147568e-16,
        0.0,
        0.0,
        0.0,
        0.0,
        1.0
      ],
      "name": "Sketchfab_model"
    },
    {
      "children": [
        2
      ],
      "matrix": [
        0.009999999776482582,
        0.0,
        0.0,
        0.0,
        0.0,
        0.0,
        0.009999999776482582,
        0.0,
        0.0,
        -0.009999999776482582,
        0.0,
        0.0,
        0.0,
        0.0,
        0.0,
        1.0
      ],
      "name": "ba900452981a4a5b96e7c8d344571816.fbx"
    },
    {
      "children": [
        3,
        5
      ],
      "name": "RootNode"
    },
    {
      "children": [
        4
      ],
      "matrix": [
        4.834259510040283,
        0.0,
        0.0,
        0.0,
        0.0,
        4.834259510040218,
        7.876008705677128e-07,
        0.0,
        0.0,
        -7.876008705677128e-07,
        4.834259510040218,
        0.0,
        123.3207015991211,
        0.16760987043380737,
        201.56918334960938,
        1.0
      ],
      "name": "Voorwerpen"
    },
    {
      "mesh": 0,
      "name": "Voorwerpen_Props_0"
    },
    {
      "children": [
        6
      ],
      "matrix": [
        4.834259510040283,
        0.0,
        0.0,
        0.0,
        0.0,
        4.834259510040218,
        7.876008705677128e-07,
        0.0,
        0.0,
        -7.876008705677128e-07,
        4.834259510040218,
        0.0,
        -28.56849479675293,
        24.378746032714844,
        -66.69585418701172,
        1.0
      ],
      "name": "Muurdecoratie"
    },
    {
      "mesh": 1,
      "name": "Muurdecoratie_Chamber_0"
    }
  ],
  "samplers": [
    {
      "magFilter": 9729,
      "minFilter": 9987,
      "wrapS": 10497,
      "wrapT": 10497
    }
  ],
  "scene": 0,
  "scenes": [
    {
      "name": "Sketchfab_Scene",
      "nodes": [
        0
      ]
    }
  ],
  "textures": [
    {
      "sampler": 0,
      "source": 0
    },
    {
      "sampler": 0,
      "source": 1
    },
    {
      "sampler": 0,
      "source": 2
    },
    {
      "sampler": 0,
      "source": 3
    },
    {
      "sampler": 0,
      "source": 4
    },
    {
      "sampler": 0,
      "source": 5
    },
    {
      "sampler": 0,
      "source": 6
    },
    {
      "sampler": 0,
      "source": 7
    }
  ]
}
